<?xml version="1.0" encoding="UTF-8" standalone="no"?>
<svg
   width="32"
   height="32"
   viewBox="0 0 32 32"
   version="1.1"
   xml:space="preserve"
   style="clip-rule:evenodd;fill-rule:evenodd;stroke-linejoin:round;stroke-miterlimit:2"
   id="svg9"
   sodipodi:docname="favicon.svg"
   inkscape:version="1.4.2 (ebf0e940, 2025-05-08)"
   xmlns:inkscape="http://www.inkscape.org/namespaces/inkscape"
   xmlns:sodipodi="http://sodipodi.sourceforge.net/DTD/sodipodi-0.dtd"
   xmlns="http://www.w3.org/2000/svg"
   xmlns:svg="http://www.w3.org/2000/svg"><defs
   id="defs9" /><sodipodi:namedview
   id="namedview9"
   pagecolor="#ffffff"
   bordercolor="#000000"
   borderopacity="0.25"
   inkscape:showpageshadow="2"
   inkscape:pageopacity="0.0"
   inkscape:pagecheckerboard="0"
   inkscape:deskcolor="#d1d1d1"
   inkscape:zoom="13.022242"
   inkscape:cx="21.040924"
   inkscape:cy="9.5989615"
   inkscape:window-width="1728"
   inkscape:window-height="1051"
   inkscape:window-x="0"
   inkscape:window-y="38"
   inkscape:window-maximized="1"
   inkscape:current-layer="svg9"
   showgrid="false" />
    <style
   id="style1">
    .gm {
      fill: black;
    }
    @media (prefers-color-scheme: dark) {
      .gm {
        fill: white;
      }
    }
    </style>
    <g
   transform="matrix(0.02952976,0,0,0.02952976,-19.643591,-19.649546)"
   id="g4">
        <g
   transform="matrix(833.369,0,0,833.369,628.528,1313.08)"
   id="g1">
            <path
   d="m 0.56,-0.48 v 0.437 C 0.56,0 0.555,0.04 0.544,0.075 0.533,0.11 0.517,0.139 0.495,0.164 0.472,0.188 0.444,0.207 0.41,0.22 0.376,0.233 0.336,0.24 0.289,0.24 0.27,0.24 0.249,0.238 0.228,0.235 0.206,0.232 0.185,0.227 0.164,0.22 0.142,0.213 0.122,0.205 0.103,0.195 0.084,0.185 0.066,0.174 0.051,0.161 L 0.12,0.068 C 0.143,0.09 0.17,0.107 0.199,0.119 0.228,0.13 0.258,0.136 0.288,0.136 0.317,0.136 0.341,0.132 0.361,0.124 0.38,0.115 0.396,0.104 0.408,0.089 0.419,0.074 0.428,0.057 0.433,0.037 0.438,0.017 0.44,-0.005 0.44,-0.029 V -0.064 H 0.438 C 0.421,-0.041 0.399,-0.023 0.372,-0.011 0.345,0.002 0.314,0.008 0.281,0.008 0.245,0.008 0.212,0.001 0.183,-0.012 0.154,-0.025 0.129,-0.043 0.109,-0.066 0.088,-0.089 0.072,-0.115 0.061,-0.146 0.05,-0.176 0.044,-0.208 0.044,-0.242 c 0,-0.035 0.005,-0.067 0.017,-0.098 0.01,-0.031 0.026,-0.057 0.047,-0.08 0.02,-0.023 0.045,-0.041 0.074,-0.054 0.029,-0.013 0.061,-0.02 0.097,-0.02 0.034,0 0.066,0.007 0.095,0.021 0.029,0.014 0.053,0.036 0.07,0.065 H 0.446 V -0.48 Z m -0.256,0.084 c -0.022,0 -0.041,0.004 -0.058,0.012 -0.017,0.008 -0.032,0.019 -0.043,0.032 -0.012,0.014 -0.021,0.03 -0.027,0.049 -0.007,0.019 -0.01,0.039 -0.01,0.06 0,0.019 0.003,0.038 0.01,0.056 0.006,0.018 0.015,0.034 0.027,0.048 0.011,0.015 0.026,0.026 0.043,0.035 0.017,0.009 0.036,0.013 0.057,0.013 0.022,0 0.042,-0.004 0.06,-0.013 0.017,-0.008 0.032,-0.019 0.045,-0.033 0.012,-0.014 0.021,-0.03 0.028,-0.049 0.007,-0.018 0.01,-0.037 0.01,-0.057 0,-0.021 -0.003,-0.04 -0.01,-0.059 C 0.429,-0.321 0.42,-0.337 0.408,-0.351 0.395,-0.365 0.38,-0.376 0.363,-0.384 0.346,-0.392 0.326,-0.396 0.304,-0.396 Z"
   class="gm"
   style="fill-rule:nonzero"
   id="path1" />
        </g>
        <g
   transform="matrix(1.16832,0,0,1.16832,-1420.58,269.398)"
   id="g3">
            <g
   transform="matrix(713.303,0,0,713.303,2126.5,893.316)"
   id="g2">
                <path
   d="m 0.645,-0.494 c 0.031,0 0.058,0.005 0.081,0.016 0.022,0.011 0.04,0.026 0.055,0.044 0.014,0.018 0.024,0.039 0.031,0.062 0.007,0.023 0.01,0.047 0.01,0.072 V 0 H 0.702 V -0.266 C 0.702,-0.28 0.701,-0.295 0.699,-0.31 0.697,-0.325 0.693,-0.339 0.686,-0.352 0.679,-0.364 0.67,-0.374 0.659,-0.382 0.647,-0.39 0.631,-0.394 0.612,-0.394 0.593,-0.394 0.577,-0.39 0.564,-0.382 0.551,-0.374 0.54,-0.364 0.531,-0.351 0.522,-0.338 0.516,-0.324 0.512,-0.309 0.508,-0.293 0.506,-0.277 0.506,-0.262 V 0 H 0.386 V -0.29 C 0.386,-0.32 0.379,-0.345 0.365,-0.365 0.35,-0.384 0.328,-0.394 0.297,-0.394 0.279,-0.394 0.263,-0.39 0.25,-0.383 0.237,-0.375 0.226,-0.365 0.218,-0.353 0.209,-0.341 0.203,-0.327 0.199,-0.312 0.194,-0.296 0.192,-0.28 0.192,-0.264 V 0 h -0.12 v -0.48 h 0.114 v 0.077 h 0.002 c 0.005,-0.012 0.013,-0.023 0.022,-0.034 0.009,-0.011 0.019,-0.02 0.032,-0.029 0.012,-0.009 0.026,-0.016 0.042,-0.021 0.016,-0.005 0.034,-0.007 0.053,-0.007 0.037,0 0.068,0.008 0.093,0.025 0.025,0.017 0.044,0.039 0.057,0.066 0.016,-0.029 0.037,-0.052 0.064,-0.068 0.027,-0.015 0.058,-0.023 0.094,-0.023 z"
   class="gm"
   style="fill-rule:nonzero"
   id="path2" />
            </g>
        </g>
    </g>
    <g
   transform="matrix(0.01337911,0,0,0.01337911,-6.6853177,3.9829388)"
   id="g9">
        <g
   transform="matrix(713.303,0,0,713.303,1487.72,1563.26)"
   id="g5">
            <path
   d="M 0.034,-0.106 0.293,-0.384 H 0.046 V -0.48 h 0.39 v 0.106 l -0.26,0.276 H 0.448 V 0 H 0.034 Z"
   style="fill:#f57f26;fill-rule:nonzero"
   id="path4" />
        </g>
        <g
   transform="matrix(713.303,0,0,713.303,1831.54,1563.26)"
   id="g6">
            <path
   d="M 0.41,-0.288 C 0.41,-0.303 0.408,-0.318 0.404,-0.332 0.399,-0.346 0.392,-0.358 0.383,-0.369 0.374,-0.38 0.362,-0.388 0.348,-0.395 0.333,-0.401 0.316,-0.404 0.297,-0.404 c -0.036,0 -0.066,0.011 -0.091,0.032 -0.025,0.022 -0.039,0.05 -0.042,0.084 z m 0.12,0.054 v 0.016 c 0,0.005 0,0.011 -0.001,0.016 H 0.164 c 0.001,0.017 0.006,0.033 0.014,0.047 0.007,0.015 0.017,0.027 0.03,0.037 0.013,0.011 0.027,0.019 0.043,0.025 0.016,0.006 0.033,0.009 0.05,0.009 0.03,0 0.055,-0.006 0.076,-0.017 0.021,-0.011 0.038,-0.026 0.051,-0.045 l 0.08,0.064 C 0.461,-0.018 0.392,0.014 0.302,0.014 0.265,0.014 0.23,0.008 0.199,-0.004 0.168,-0.015 0.14,-0.032 0.118,-0.053 0.095,-0.074 0.077,-0.1 0.064,-0.132 0.05,-0.163 0.044,-0.198 0.044,-0.237 c 0,-0.039 0.006,-0.074 0.02,-0.106 0.013,-0.031 0.03,-0.058 0.053,-0.081 0.023,-0.022 0.05,-0.039 0.081,-0.052 0.031,-0.012 0.064,-0.018 0.1,-0.018 0.033,0 0.064,0.005 0.093,0.016 0.028,0.011 0.052,0.028 0.073,0.049 0.021,0.022 0.037,0.049 0.049,0.081 0.011,0.033 0.017,0.071 0.017,0.114 z"
   style="fill:#f57f26;fill-rule:nonzero"
   id="path5" />
        </g>
        <g
   transform="matrix(713.303,0,0,713.303,2240.97,1563.26)"
   id="g7">
            <path
   d="m 0.072,-0.48 h 0.115 v 0.08 h 0.002 c 0.013,-0.028 0.032,-0.051 0.056,-0.068 0.024,-0.017 0.052,-0.026 0.084,-0.026 0.005,0 0.01,0 0.015,0 0.005,0.001 0.01,0.002 0.014,0.003 v 0.11 C 0.35,-0.383 0.343,-0.384 0.338,-0.385 0.332,-0.386 0.326,-0.386 0.321,-0.386 c -0.027,0 -0.049,0.005 -0.066,0.015 -0.017,0.01 -0.03,0.022 -0.039,0.036 C 0.207,-0.321 0.2,-0.307 0.197,-0.292 0.194,-0.277 0.192,-0.266 0.192,-0.257 V 0 h -0.12 z"
   style="fill:#f57f26;fill-rule:nonzero"
   id="path6" />
        </g>
        <g
   transform="matrix(713.303,0,0,713.303,2487.78,1563.26)"
   id="g8">
            <path
   d="m 0.044,-0.242 c 0,-0.038 0.007,-0.073 0.021,-0.104 0.013,-0.031 0.032,-0.057 0.055,-0.079 0.023,-0.022 0.051,-0.039 0.083,-0.051 0.032,-0.012 0.066,-0.018 0.102,-0.018 0.036,0 0.07,0.006 0.102,0.018 0.032,0.012 0.06,0.029 0.083,0.051 0.023,0.022 0.042,0.048 0.056,0.079 0.013,0.031 0.02,0.066 0.02,0.104 0,0.038 -0.007,0.073 -0.02,0.104 C 0.532,-0.107 0.513,-0.08 0.49,-0.058 0.467,-0.035 0.439,-0.018 0.407,-0.005 0.375,0.008 0.341,0.014 0.305,0.014 0.269,0.014 0.235,0.008 0.203,-0.005 0.171,-0.018 0.143,-0.035 0.12,-0.058 0.097,-0.08 0.078,-0.107 0.065,-0.138 0.051,-0.169 0.044,-0.204 0.044,-0.242 Z m 0.122,0 c 0,0.019 0.003,0.037 0.009,0.056 0.005,0.019 0.014,0.035 0.025,0.05 0.011,0.015 0.026,0.027 0.043,0.036 0.017,0.009 0.038,0.014 0.062,0.014 0.024,0 0.045,-0.005 0.062,-0.014 0.017,-0.009 0.032,-0.021 0.043,-0.036 0.011,-0.015 0.02,-0.031 0.026,-0.05 0.005,-0.019 0.008,-0.037 0.008,-0.056 0,-0.019 -0.003,-0.037 -0.008,-0.056 C 0.43,-0.316 0.421,-0.332 0.41,-0.347 0.399,-0.362 0.384,-0.374 0.367,-0.383 0.35,-0.392 0.329,-0.396 0.305,-0.396 0.281,-0.396 0.26,-0.392 0.243,-0.383 0.226,-0.374 0.211,-0.362 0.2,-0.347 0.189,-0.332 0.18,-0.316 0.175,-0.298 0.169,-0.279 0.166,-0.261 0.166,-0.242 Z"
   style="fill:#f57f26;fill-rule:nonzero"
   id="path7" />
        </g>
    </g>
</svg>
