<?xml version="1.0" encoding="UTF-8" standalone="no"?>
<!DOCTYPE svg PUBLIC "-//W3C//DTD SVG 1.1//EN" "http://www.w3.org/Graphics/SVG/1.1/DTD/svg11.dtd">
<svg width="100%" height="100%" viewBox="0 0 2732 2048" version="1.1" xmlns="http://www.w3.org/2000/svg" xmlns:xlink="http://www.w3.org/1999/xlink" xml:space="preserve" xmlns:serif="http://www.serif.com/" style="fill-rule:evenodd;clip-rule:evenodd;stroke-linejoin:round;stroke-miterlimit:2;">
    <g transform="matrix(1.97737,0,0,1.97737,-1020.76,-1363.16)">
        <g transform="matrix(833.369,0,0,833.369,628.528,1313.08)">
            <path d="M0.56,-0.48L0.56,-0.043C0.56,0 0.555,0.04 0.544,0.075C0.533,0.11 0.517,0.139 0.495,0.164C0.472,0.188 0.444,0.207 0.41,0.22C0.376,0.233 0.336,0.24 0.289,0.24C0.27,0.24 0.249,0.238 0.228,0.235C0.206,0.232 0.185,0.227 0.164,0.22C0.142,0.213 0.122,0.205 0.103,0.195C0.084,0.185 0.066,0.174 0.051,0.161L0.12,0.068C0.143,0.09 0.17,0.107 0.199,0.119C0.228,0.13 0.258,0.136 0.288,0.136C0.317,0.136 0.341,0.132 0.361,0.124C0.38,0.115 0.396,0.104 0.408,0.089C0.419,0.074 0.428,0.057 0.433,0.037C0.438,0.017 0.44,-0.005 0.44,-0.029L0.44,-0.064L0.438,-0.064C0.421,-0.041 0.399,-0.023 0.372,-0.011C0.345,0.002 0.314,0.008 0.281,0.008C0.245,0.008 0.212,0.001 0.183,-0.012C0.154,-0.025 0.129,-0.043 0.109,-0.066C0.088,-0.089 0.072,-0.115 0.061,-0.146C0.05,-0.176 0.044,-0.208 0.044,-0.242C0.044,-0.277 0.049,-0.309 0.061,-0.34C0.071,-0.371 0.087,-0.397 0.108,-0.42C0.128,-0.443 0.153,-0.461 0.182,-0.474C0.211,-0.487 0.243,-0.494 0.279,-0.494C0.313,-0.494 0.345,-0.487 0.374,-0.473C0.403,-0.459 0.427,-0.437 0.444,-0.408L0.446,-0.408L0.446,-0.48L0.56,-0.48ZM0.304,-0.396C0.282,-0.396 0.263,-0.392 0.246,-0.384C0.229,-0.376 0.214,-0.365 0.203,-0.352C0.191,-0.338 0.182,-0.322 0.176,-0.303C0.169,-0.284 0.166,-0.264 0.166,-0.243C0.166,-0.224 0.169,-0.205 0.176,-0.187C0.182,-0.169 0.191,-0.153 0.203,-0.139C0.214,-0.124 0.229,-0.113 0.246,-0.104C0.263,-0.095 0.282,-0.091 0.303,-0.091C0.325,-0.091 0.345,-0.095 0.363,-0.104C0.38,-0.112 0.395,-0.123 0.408,-0.137C0.42,-0.151 0.429,-0.167 0.436,-0.186C0.443,-0.204 0.446,-0.223 0.446,-0.243C0.446,-0.264 0.443,-0.283 0.436,-0.302C0.429,-0.321 0.42,-0.337 0.408,-0.351C0.395,-0.365 0.38,-0.376 0.363,-0.384C0.346,-0.392 0.326,-0.396 0.304,-0.396Z" style="fill-rule:nonzero;"/>
        </g>
        <g transform="matrix(1.16832,0,0,1.16832,-1420.58,269.398)">
            <g transform="matrix(713.303,0,0,713.303,2126.5,893.316)">
                <path d="M0.645,-0.494C0.676,-0.494 0.703,-0.489 0.726,-0.478C0.748,-0.467 0.766,-0.452 0.781,-0.434C0.795,-0.416 0.805,-0.395 0.812,-0.372C0.819,-0.349 0.822,-0.325 0.822,-0.3L0.822,-0L0.702,-0L0.702,-0.266C0.702,-0.28 0.701,-0.295 0.699,-0.31C0.697,-0.325 0.693,-0.339 0.686,-0.352C0.679,-0.364 0.67,-0.374 0.659,-0.382C0.647,-0.39 0.631,-0.394 0.612,-0.394C0.593,-0.394 0.577,-0.39 0.564,-0.382C0.551,-0.374 0.54,-0.364 0.531,-0.351C0.522,-0.338 0.516,-0.324 0.512,-0.309C0.508,-0.293 0.506,-0.277 0.506,-0.262L0.506,-0L0.386,-0L0.386,-0.29C0.386,-0.32 0.379,-0.345 0.365,-0.365C0.35,-0.384 0.328,-0.394 0.297,-0.394C0.279,-0.394 0.263,-0.39 0.25,-0.383C0.237,-0.375 0.226,-0.365 0.218,-0.353C0.209,-0.341 0.203,-0.327 0.199,-0.312C0.194,-0.296 0.192,-0.28 0.192,-0.264L0.192,-0L0.072,-0L0.072,-0.48L0.186,-0.48L0.186,-0.403L0.188,-0.403C0.193,-0.415 0.201,-0.426 0.21,-0.437C0.219,-0.448 0.229,-0.457 0.242,-0.466C0.254,-0.475 0.268,-0.482 0.284,-0.487C0.3,-0.492 0.318,-0.494 0.337,-0.494C0.374,-0.494 0.405,-0.486 0.43,-0.469C0.455,-0.452 0.474,-0.43 0.487,-0.403C0.503,-0.432 0.524,-0.455 0.551,-0.471C0.578,-0.486 0.609,-0.494 0.645,-0.494Z" style="fill-rule:nonzero;"/>
            </g>
        </g>
    </g>
    <g transform="matrix(0.895891,0,0,0.895891,-153.049,219.316)">
        <g transform="matrix(713.303,0,0,713.303,1487.72,1563.26)">
            <path d="M0.034,-0.106L0.293,-0.384L0.046,-0.384L0.046,-0.48L0.436,-0.48L0.436,-0.374L0.176,-0.098L0.448,-0.098L0.448,-0L0.034,-0L0.034,-0.106Z" style="fill:rgb(245,127,38);fill-rule:nonzero;"/>
        </g>
        <g transform="matrix(713.303,0,0,713.303,1831.54,1563.26)">
            <path d="M0.41,-0.288C0.41,-0.303 0.408,-0.318 0.404,-0.332C0.399,-0.346 0.392,-0.358 0.383,-0.369C0.374,-0.38 0.362,-0.388 0.348,-0.395C0.333,-0.401 0.316,-0.404 0.297,-0.404C0.261,-0.404 0.231,-0.393 0.206,-0.372C0.181,-0.35 0.167,-0.322 0.164,-0.288L0.41,-0.288ZM0.53,-0.234L0.53,-0.218C0.53,-0.213 0.53,-0.207 0.529,-0.202L0.164,-0.202C0.165,-0.185 0.17,-0.169 0.178,-0.155C0.185,-0.14 0.195,-0.128 0.208,-0.118C0.221,-0.107 0.235,-0.099 0.251,-0.093C0.267,-0.087 0.284,-0.084 0.301,-0.084C0.331,-0.084 0.356,-0.09 0.377,-0.101C0.398,-0.112 0.415,-0.127 0.428,-0.146L0.508,-0.082C0.461,-0.018 0.392,0.014 0.302,0.014C0.265,0.014 0.23,0.008 0.199,-0.004C0.168,-0.015 0.14,-0.032 0.118,-0.053C0.095,-0.074 0.077,-0.1 0.064,-0.132C0.05,-0.163 0.044,-0.198 0.044,-0.237C0.044,-0.276 0.05,-0.311 0.064,-0.343C0.077,-0.374 0.094,-0.401 0.117,-0.424C0.14,-0.446 0.167,-0.463 0.198,-0.476C0.229,-0.488 0.262,-0.494 0.298,-0.494C0.331,-0.494 0.362,-0.489 0.391,-0.478C0.419,-0.467 0.443,-0.45 0.464,-0.429C0.485,-0.407 0.501,-0.38 0.513,-0.348C0.524,-0.315 0.53,-0.277 0.53,-0.234Z" style="fill:rgb(245,127,38);fill-rule:nonzero;"/>
        </g>
        <g transform="matrix(713.303,0,0,713.303,2240.97,1563.26)">
            <path d="M0.072,-0.48L0.187,-0.48L0.187,-0.4L0.189,-0.4C0.202,-0.428 0.221,-0.451 0.245,-0.468C0.269,-0.485 0.297,-0.494 0.329,-0.494C0.334,-0.494 0.339,-0.494 0.344,-0.494C0.349,-0.493 0.354,-0.492 0.358,-0.491L0.358,-0.381C0.35,-0.383 0.343,-0.384 0.338,-0.385C0.332,-0.386 0.326,-0.386 0.321,-0.386C0.294,-0.386 0.272,-0.381 0.255,-0.371C0.238,-0.361 0.225,-0.349 0.216,-0.335C0.207,-0.321 0.2,-0.307 0.197,-0.292C0.194,-0.277 0.192,-0.266 0.192,-0.257L0.192,-0L0.072,-0L0.072,-0.48Z" style="fill:rgb(245,127,38);fill-rule:nonzero;"/>
        </g>
        <g transform="matrix(713.303,0,0,713.303,2487.78,1563.26)">
            <path d="M0.044,-0.242C0.044,-0.28 0.051,-0.315 0.065,-0.346C0.078,-0.377 0.097,-0.403 0.12,-0.425C0.143,-0.447 0.171,-0.464 0.203,-0.476C0.235,-0.488 0.269,-0.494 0.305,-0.494C0.341,-0.494 0.375,-0.488 0.407,-0.476C0.439,-0.464 0.467,-0.447 0.49,-0.425C0.513,-0.403 0.532,-0.377 0.546,-0.346C0.559,-0.315 0.566,-0.28 0.566,-0.242C0.566,-0.204 0.559,-0.169 0.546,-0.138C0.532,-0.107 0.513,-0.08 0.49,-0.058C0.467,-0.035 0.439,-0.018 0.407,-0.005C0.375,0.008 0.341,0.014 0.305,0.014C0.269,0.014 0.235,0.008 0.203,-0.005C0.171,-0.018 0.143,-0.035 0.12,-0.058C0.097,-0.08 0.078,-0.107 0.065,-0.138C0.051,-0.169 0.044,-0.204 0.044,-0.242ZM0.166,-0.242C0.166,-0.223 0.169,-0.205 0.175,-0.186C0.18,-0.167 0.189,-0.151 0.2,-0.136C0.211,-0.121 0.226,-0.109 0.243,-0.1C0.26,-0.091 0.281,-0.086 0.305,-0.086C0.329,-0.086 0.35,-0.091 0.367,-0.1C0.384,-0.109 0.399,-0.121 0.41,-0.136C0.421,-0.151 0.43,-0.167 0.436,-0.186C0.441,-0.205 0.444,-0.223 0.444,-0.242C0.444,-0.261 0.441,-0.279 0.436,-0.298C0.43,-0.316 0.421,-0.332 0.41,-0.347C0.399,-0.362 0.384,-0.374 0.367,-0.383C0.35,-0.392 0.329,-0.396 0.305,-0.396C0.281,-0.396 0.26,-0.392 0.243,-0.383C0.226,-0.374 0.211,-0.362 0.2,-0.347C0.189,-0.332 0.18,-0.316 0.175,-0.298C0.169,-0.279 0.166,-0.261 0.166,-0.242Z" style="fill:rgb(245,127,38);fill-rule:nonzero;"/>
        </g>
    </g>
</svg>